<svg width="103" height="75" viewBox="0 0 103 75" fill="none" xmlns="http://www.w3.org/2000/svg">
<g clip-path="url(#clip0_4_122)">
<path d="M48.0882 75C63.1697 75 75.3957 71.1994 75.3957 66.511C75.3957 61.8227 63.1697 58.0221 48.0882 58.0221C33.0066 58.0221 20.7806 61.8227 20.7806 66.511C20.7806 71.1994 33.0066 75 48.0882 75Z" fill="url(#paint0_radial_4_122)"/>
<path d="M54.1753 11.7572C58.9756 11.6893 65.7739 5.33954 67.7762 5.74277C69.7784 6.14599 67.1835 9.43547 63.1198 13.0942C56.7236 18.8455 57.5787 22.8141 55.5003 34.219C53.0747 47.6867 52.571 49.9236 51.0174 52.275C51.0174 52.275 50.7042 45.7937 48.702 29.9406C47.4998 20.4499 46.433 16.5704 40.9681 12.0246C35.6429 7.60186 33.7719 2.93292 37.2346 4.26993C40.6972 5.60694 44.5747 11.9058 54.1753 11.7572Z" fill="url(#paint1_linear_4_122)"/>
<path d="M57.9173 4.81325C57.9434 5.79642 57.6765 6.76507 57.1508 7.59536C56.625 8.42566 55.8642 9.07988 54.9657 9.47439C54.0672 9.86891 53.0718 9.9858 52.1067 9.81013C51.1416 9.63445 50.2507 9.17419 49.5478 8.48817C48.8449 7.80215 48.362 6.92155 48.1609 5.95893C47.9597 4.99631 48.0494 3.99541 48.4185 3.08417C48.7876 2.17294 49.4193 1.39276 50.2329 0.843373C51.0465 0.293987 52.0049 0.000342908 52.9858 -5.35042e-06C54.2762 -0.0170071 55.5205 0.480451 56.4453 1.38301C57.37 2.28558 57.8995 3.51939 57.9173 4.81325Z" fill="url(#paint2_linear_4_122)"/>
<path d="M20.1753 17.1944C24.2052 14.5755 26.5926 5.57299 28.5017 4.84294C30.4109 4.11289 29.9579 8.28522 28.451 13.5611C26.0847 21.8421 28.9124 24.7496 33.2259 35.5008C37.4208 45.9635 40.2316 52.2878 40.2316 52.2878C40.2316 52.2878 35.3043 47.8608 25.1957 35.5263C19.1424 28.1282 16.1835 25.416 9.14394 24.4907C2.28637 23.5823 -1.77738 20.6367 1.86729 19.9194C5.51196 19.202 12.1198 22.4278 20.1753 17.1944Z" fill="url(#paint3_linear_4_122)"/>
<path d="M19.6546 9.30392C20.1999 10.1229 20.4891 11.0863 20.4852 12.071C20.4814 13.0557 20.1847 14.0168 19.6331 14.8315C19.0815 15.6462 18.3001 16.2773 17.3887 16.6443C16.4774 17.0112 15.4777 17.0972 14.5174 16.8913C13.5571 16.6854 12.6798 16.1969 11.9979 15.4884C11.3159 14.7798 10.8603 13.8834 10.6892 12.9138C10.5181 11.9442 10.6394 10.9454 11.0375 10.0453C11.4356 9.14516 12.0925 8.38457 12.9241 7.8608C14.0075 7.15755 15.3252 6.91452 16.5873 7.18514C17.8495 7.45576 18.9528 8.21787 19.6546 9.30392Z" fill="url(#paint4_linear_4_122)"/>
<path d="M82.8247 18.0433C78.7948 15.4245 76.4074 6.4219 74.5025 5.69185C72.5976 4.9618 73.0421 9.13413 74.5533 14.41C76.9196 22.691 74.0876 25.5985 69.7784 36.3498C65.5834 46.8124 64.36 51.6299 64.36 51.6299C64.36 51.6299 67.6999 48.6885 77.8085 36.3498C83.8576 28.9516 86.8207 26.2394 93.8603 25.3141C100.714 24.4058 104.782 21.4601 101.137 20.7428C97.4923 20.0255 90.8844 23.2767 82.8247 18.0433Z" fill="url(#paint5_linear_4_122)"/>
<path d="M83.3454 10.1528C82.8002 10.9718 82.511 11.9352 82.5148 12.9199C82.5187 13.9046 82.8153 14.8657 83.3669 15.6804C83.9185 16.495 84.6999 17.1262 85.6112 17.4931C86.5225 17.8601 87.5223 17.9461 88.4826 17.7402C89.4429 17.5343 90.3202 17.0458 91.0021 16.3373C91.6841 15.6287 92.1397 14.7323 92.3108 13.7627C92.4819 12.7931 92.3606 11.7943 91.9625 10.8942C91.5644 9.99404 90.9075 9.23345 90.0759 8.70968C88.9921 8.00756 87.6748 7.76518 86.413 8.03573C85.1512 8.30627 84.048 9.06765 83.3454 10.1528Z" fill="url(#paint6_linear_4_122)"/>
</g>
<defs>
<radialGradient id="paint0_radial_4_122" cx="0" cy="0" r="1" gradientUnits="userSpaceOnUse" gradientTransform="translate(48.4026 66.9951) scale(27.3421 8.43565)">
<stop stop-color="#E2DEE5"/>
<stop offset="0.48" stop-color="#F2F0F3"/>
<stop offset="1" stop-color="white"/>
</radialGradient>
<linearGradient id="paint1_linear_4_122" x1="35.4821" y1="28.1706" x2="68.4661" y2="28.1706" gradientUnits="userSpaceOnUse">
<stop stop-color="#2A60DC"/>
<stop offset="0.01" stop-color="#295FD8"/>
<stop offset="0.13" stop-color="#1E59C0"/>
<stop offset="0.26" stop-color="#1755AD"/>
<stop offset="0.42" stop-color="#1151A0"/>
<stop offset="0.62" stop-color="#0E5098"/>
<stop offset="1" stop-color="#0D4F96"/>
</linearGradient>
<linearGradient id="paint2_linear_4_122" x1="48.0543" y1="4.81324" x2="57.9173" y2="4.81324" gradientUnits="userSpaceOnUse">
<stop stop-color="#2A60DC"/>
<stop offset="0.01" stop-color="#295FD8"/>
<stop offset="0.13" stop-color="#1E59C0"/>
<stop offset="0.26" stop-color="#1755AD"/>
<stop offset="0.42" stop-color="#1151A0"/>
<stop offset="0.62" stop-color="#0E5098"/>
<stop offset="1" stop-color="#0D4F96"/>
</linearGradient>
<linearGradient id="paint3_linear_4_122" x1="0.500011" y1="28.5229" x2="40.2316" y2="28.5229" gradientUnits="userSpaceOnUse">
<stop stop-color="#00BB3E"/>
<stop offset="0.46" stop-color="#4DBE3D"/>
<stop offset="0.82" stop-color="#84C03C"/>
<stop offset="1" stop-color="#99C13C"/>
</linearGradient>
<linearGradient id="paint4_linear_4_122" x1="10.5832" y1="11.9397" x2="20.3743" y2="11.9397" gradientUnits="userSpaceOnUse">
<stop stop-color="#00BB3E"/>
<stop offset="0.46" stop-color="#4DBE3D"/>
<stop offset="0.82" stop-color="#84C03C"/>
<stop offset="1" stop-color="#99C13C"/>
</linearGradient>
<linearGradient id="paint5_linear_4_122" x1="64.36" y1="28.629" x2="102.504" y2="28.629" gradientUnits="userSpaceOnUse">
<stop stop-color="#00BB3E"/>
<stop offset="0.58" stop-color="#24B145"/>
<stop offset="1" stop-color="#39AB49"/>
</linearGradient>
<linearGradient id="paint6_linear_4_122" x1="82.6258" y1="12.7886" x2="92.4211" y2="12.7886" gradientUnits="userSpaceOnUse">
<stop stop-color="#00BB3E"/>
<stop offset="0.58" stop-color="#24B145"/>
<stop offset="1" stop-color="#39AB49"/>
</linearGradient>
<clipPath id="clip0_4_122">
<rect width="102" height="75" fill="white" transform="translate(0.5)"/>
</clipPath>
</defs>
</svg>
